<svg xmlns="http://www.w3.org/2000/svg" width="37" height="25" fill="none" viewBox="0 0 37 25">
  <path fill="red" fill-rule="evenodd" d="m11.61 24.82 7.52.14a136.9 136.9 0 0 0 12.47-.45c3.34-.23 4.13-2.61 4.54-5.45a45.85 45.85 0 0 0 .32-10.86c-.25-3.3-.53-7.02-4.5-7.7-.84-.15-1.7-.28-2.55-.3-8.1-.27-16.27-.33-24.39.22A4.39 4.39 0 0 0 .67 4.33a50.66 50.66 0 0 0-.46 12.88c.27 2.98.58 6.45 4.14 7.17 1.93.4 3.88.4 5.84.43l1.42.01Zm7.06-9.3c-1.31.75-2.63 1.5-3.96 2.24V7.16l4.27 2.42 5.1 2.88-5.4 3.06Z" clip-rule="evenodd"/>
</svg>
