<svg xmlns="http://www.w3.org/2000/svg" width="116" height="25" fill="none" id="logo">
  <path fill="#fff" d="M7.94 4h21v17h-21z"/>
  <path fill="red" fill-rule="evenodd" d="m11.61 24.82 7.52.14a136.9 136.9 0 0 0 12.47-.45c3.34-.23 4.13-2.61 4.54-5.45a45.85 45.85 0 0 0 .32-10.86c-.25-3.3-.53-7.02-4.5-7.7-.84-.15-1.7-.28-2.55-.3-8.1-.27-16.27-.33-24.39.22A4.39 4.39 0 0 0 .67 4.33a50.66 50.66 0 0 0-.46 12.88c.27 2.98.58 6.45 4.14 7.17 1.93.4 3.88.4 5.84.43l1.42.01Zm7.06-9.3c-1.31.75-2.63 1.5-3.96 2.24V7.16l4.27 2.42 5.1 2.88-5.4 3.06Z" clip-rule="evenodd"/>
  <path fill="#000" fill-rule="evenodd" d="m96.72 22.75.27-1.02.18.25.17.24c1.56 2.02 4.7 1.66 5.67-.67.3-.7.53-1.48.56-2.24.1-2.47.13-4.93.08-7.4-.02-.96-.22-1.95-.53-2.87-.47-1.48-1.8-2.15-3.36-1.85-.98.2-1.74.72-2.33 1.51l-.12.15-.23.27V.87h-3.43v22.37h2.94l.13-.5Zm.44-3.09v-8.19c0-.68.33-1.2.88-1.57.73-.47 1.47-.23 1.74.59.15.45.26.94.26 1.4-.02 2.5-.08 5-.14 7.5-.01.27-.12.54-.24.8-.27.6-.8.85-1.47.7-.67-.15-1.03-.56-1.03-1.23ZM87.83 7.5h3.6v15.75h-2.81l-.3-1.73-.03-.2-.3.45-.12.19c-.93 1.32-2.26 1.78-3.82 1.54-1.33-.22-2.13-1.23-2.31-2.9-.05-.49-.08-.99-.08-1.49V7.5h3.64v11.32c0 .51.06 1.04.15 1.54.1.52.49.71 1 .67.83-.06 1.4-.67 1.4-1.48V8.2c-.02-.23-.02-.44-.02-.7Zm-21.14 0h-3.6l-.02.42c0 3.82 0 7.67.02 11.5 0 .47.04.94.11 1.42.24 1.53 1.02 2.46 2.3 2.65 1.6.24 2.9-.25 3.84-1.6l.38-.58.17.97.17.97h2.8V7.52h-3.6V19.5c0 .82-.5 1.38-1.32 1.5-.6.07-.94-.12-1.08-.7-.1-.5-.16-1.02-.16-1.53V7.5Zm-5.46 8.4a35.23 35.23 0 0 1-.12 2.02c-.12 1.55-.28 3.52-1.47 4.58-.83.74-1.88 1-2.97 1.04-.48 0-.97 0-1.46-.06-2.29-.34-3.35-1.34-3.74-3.82a26.2 26.2 0 0 1 .05-8.64c.54-2.97 2.4-4.02 5.28-3.82 2.69.19 3.89 1.93 4.2 4.4.18 1.42.26 2.86.23 4.3Zm-3.66-1.4v.86c0 .93-.04 1.87-.08 2.8l-.04 1.28c0 .34-.12.69-.26 1a.97.97 0 0 1-.96.65c-.48 0-.85-.24-1-.67-.37-1.1-.33-2.3-.29-3.48l.03-.94.02-4.75c0-.22.06-.44.13-.66v-.04c.2-.62.57-.93 1.1-.95.53 0 .96.31 1.1.98.13.57.21 1.16.24 1.75.02.72.02 1.44.01 2.16Zm-11.12-3.34c.23-1.1.45-2.2.7-3.28l.59-2.66c.23-1.02.47-2.04.68-3.06.1-.47.3-.58.74-.57.69.03 1.38.02 2.1.02h.88l-.91 3.22-.08.28-3.06 10.74c-.07.28-.1.58-.1.88-.02 1.3-.01 2.6-.01 3.9v2.6h-3.51l-.01-.18a19.13 19.13 0 0 1 0-3.67c.21-2.3-.4-4.44-1.03-6.58l-.26-.93L41.8 7l-1.37-4.87-.07-.27c-.01-.08-.02-.16-.05-.24h3.59c.75 3.58 1.5 7.16 2.3 10.77l.25-1.23Zm62.38 5.34h6.05a248.15 248.15 0 0 1 .03-4.58 9.97 9.97 0 0 0-.3-1.96c-.34-1.36-1.12-2.4-2.6-2.66-.9-.15-1.85-.19-2.77-.1-1.7.16-2.8 1.15-3.3 2.75-.12.4-.23.77-.3 1.18-.37 2.4-.3 4.82-.12 7.22.06.98.37 1.95.69 2.88.35 1 1.12 1.65 2.15 1.95 1.4.4 2.8.4 4.18-.13 1.74-.66 2.77-2.82 2.2-4.5l-2.1-.1-.91-.05v.1l-.05.7c-.03.26-.06.52-.12.77-.17.78-.58 1.13-1.3 1.12-.69 0-1.13-.34-1.22-1.13-.09-.81-.12-1.63-.16-2.48l-.05-.98Zm2.61-2.07v-3.42c0-.26-.11-.54-.21-.8-.2-.49-.63-.62-1.14-.62-.5 0-.83.25-.95.7-.32 1.12-.3 2.25-.27 3.39l.02.76h2.55ZM72.07 4.5h3.56v18.74h3.53V4.47h3.53V1.65H72.07v2.84Z" clip-rule="evenodd"/>
</svg>
